<svg id="Layer_1" data-name="Layer 1" xmlns="http://www.w3.org/2000/svg" viewBox="0 0 256 256"><defs><style>.cls-1{fill:#d8c2ab;}</style></defs><title>sloth-bg</title><path class="cls-1" d="M89,8.49A13.56,13.56,0,1,1,75.43-5.06,13.56,13.56,0,0,1,89,8.49Zm40.3-4.62a3.63,3.63,0,0,1-.23.45c-.93,1.53-23.21,37.51-53.63,37.51S22.73,5.85,21.8,4.32a3.63,3.63,0,0,1-.23-.45,25,25,0,0,1,.33-18.36c3.55-8.69,11.71-15.65,24.25-20.69,8.37-3.37,16.34-6.19,29.15-6.66h.28c12.81.48,20.78,3.3,29.14,6.66,12.54,5,20.69,12,24.25,20.69A25,25,0,0,1,129.29,3.88ZM115.11,10.7l-8.39-4.47a9.75,9.75,0,0,1-4.27,1A9.84,9.84,0,0,1,92.6-2.6a9.84,9.84,0,0,1,9.84-9.85,9.82,9.82,0,0,1,9.76,9l9.71,5.17.65-1a17.68,17.68,0,0,0-.54-12.5c-2.8-6.69-9.56-12.23-20.08-16.46-7.68-3.09-15-5.68-26.51-6.13-11.55.45-18.56,2.93-26.51,6.13C38.4-24,31.64-18.5,28.84-11.81A17.67,17.67,0,0,0,28.31.7c.13.21.35.54.64,1l9.71-5.17a9.81,9.81,0,0,1,9.76-9A9.84,9.84,0,0,1,58.26-2.6a9.84,9.84,0,0,1-9.84,9.85,9.75,9.75,0,0,1-4.27-1L35.75,10.7c8.39,10,22.93,23.7,39.68,23.7S106.73,20.7,115.11,10.7Z"/><path class="cls-1" d="M89,264.49a13.56,13.56,0,1,1-13.56-13.56A13.56,13.56,0,0,1,89,264.49Zm40.3-4.62a3.63,3.63,0,0,1-.23.45c-.93,1.53-23.21,37.51-53.63,37.51s-52.7-36-53.63-37.51a3.63,3.63,0,0,1-.23-.45,25,25,0,0,1,.33-18.36c3.55-8.69,11.71-15.65,24.25-20.69,8.37-3.37,16.34-6.19,29.15-6.66h.28c12.81.48,20.78,3.3,29.14,6.66,12.54,5,20.69,12,24.25,20.69A25,25,0,0,1,129.29,259.88Zm-14.18,6.83-8.39-4.47a9.84,9.84,0,1,1,5.49-9.72l9.71,5.17.65-1a17.68,17.68,0,0,0-.54-12.5c-2.8-6.69-9.56-12.23-20.08-16.46-7.68-3.09-15-5.68-26.51-6.13-11.55.45-18.56,2.93-26.51,6.13C38.4,232,31.64,237.5,28.84,244.19a17.67,17.67,0,0,0-.53,12.51c.13.21.35.54.64,1l9.71-5.17a9.88,9.88,0,1,1,5.49,9.72l-8.39,4.47c8.39,10,22.93,23.7,39.68,23.7S106.73,276.7,115.11,266.7Z"/><path class="cls-1" d="M194.13,136.49a13.56,13.56,0,1,1-13.56-13.56A13.56,13.56,0,0,1,194.13,136.49Zm40.3-4.62a3.63,3.63,0,0,1-.23.45c-.93,1.53-23.21,37.51-53.63,37.51s-52.7-36-53.63-37.51a3.63,3.63,0,0,1-.23-.45,25,25,0,0,1,.33-18.36c3.55-8.69,11.71-15.65,24.25-20.69,8.37-3.37,16.34-6.19,29.15-6.66h.28c12.81.48,20.78,3.3,29.14,6.66,12.54,5,20.69,12,24.25,20.69A25,25,0,0,1,234.43,131.88Zm-14.18,6.83-8.39-4.47a9.84,9.84,0,1,1,5.49-9.72l9.71,5.17.65-1a17.68,17.68,0,0,0-.54-12.5c-2.8-6.69-9.56-12.23-20.08-16.46-7.68-3.09-15-5.68-26.51-6.13C169,94,162,96.53,154.06,99.73,143.54,104,136.78,109.5,134,116.19a17.67,17.67,0,0,0-.53,12.51c.13.21.35.54.64,1l9.71-5.17a9.88,9.88,0,1,1,5.49,9.72l-8.39,4.47c8.39,10,22.93,23.7,39.68,23.7S211.86,148.7,220.25,138.7Z"/></svg>